<svg width="73" height="73" xmlns="http://www.w3.org/2000/svg">
 <metadata id="metadata8">image/svg+xml</metadata>
 <defs>
  <clipPath clipPathUnits="userSpaceOnUse" id="clipPath20">
   <path d="m-0.000008,73.000031l750,0l0,-328l-750,0l0,328z" id="path18"/>
  </clipPath>
 </defs>
 <g>
  <title>background</title>
  <rect fill="none" id="canvas_background" height="75" width="75" y="-1" x="-1"/>
 </g>
 <g>
  <title>Layer 1</title>
  <g stroke="null" id="g10">
   <path fill-opacity="0" fill-rule="nonzero" d="m-72.75,-145.5l750,0l0,328l-750,0l0,-328z" id="path12"/>
   <g stroke="null" id="g14">
    <g stroke="null" id="g16" clip-path="url(#clipPath20)">
     <g stroke="null" id="g22">
      <path fill="#e74724" fill-rule="nonzero" d="m36.306198,23.777893c-6.879,0 -12.455,5.576 -12.455,12.455c0,6.878 5.576,12.455 12.455,12.455c6.879,0 12.455,-5.577 12.455,-12.455c0,-6.879 -5.576,-12.455 -12.455,-12.455m36.001,23.758c-0.125,0.153 -0.261,0.292 -0.412,0.419c-0.535,0.45 -1.215,0.733 -1.965,0.733l-21.169,0l0,21.169c0,0.634 -0.195,1.225 -0.527,1.715c-0.332,0.491 -0.802,0.882 -1.353,1.116c-0.367,0.156 -0.771,0.242 -1.193,0.242l0,0l-18.764,0l0,0c-0.211,0 -0.417,-0.022 -0.617,-0.063c-0.599,-0.123 -1.135,-0.422 -1.553,-0.84c-0.557,-0.557 -0.903,-1.325 -0.903,-2.17l0,-21.169l-21.169,0c-1.691,0 -3.073,-1.383 -3.073,-3.073l0,-0.001l0,-18.763c0,-1.69 1.382,-3.073 3.073,-3.073l21.169,0l0,-21.17c0,-0.845 0.346,-1.613 0.903,-2.17c0.418,-0.418 0.954,-0.717 1.553,-0.84c0.2,-0.041 0.406,-0.063 0.617,-0.063l0,0l18.764,0l0,0c0.422,0 0.826,0.087 1.193,0.243c0.551,0.234 1.021,0.625 1.353,1.115c0.332,0.491 0.527,1.082 0.527,1.715l0,21.17l21.169,0c0.423,0 0.826,0.086 1.194,0.242c0.183,0.078 0.358,0.174 0.521,0.285c0.328,0.221 0.61,0.504 0.832,0.831c0.332,0.491 0.526,1.081 0.526,1.715l0,18.763l0,0.001c0,0.729 -0.268,1.392 -0.696,1.921" id="path24"/>
     </g>
     <g stroke="null" id="g26"/>
    </g>
   </g>
  </g>
 </g>
</svg>
