<?xml version="1.0" encoding="UTF-8" standalone="no"?>
<svg
   xmlns:dc="http://purl.org/dc/elements/1.1/"
   xmlns:cc="http://creativecommons.org/ns#"
   xmlns:rdf="http://www.w3.org/1999/02/22-rdf-syntax-ns#"
   xmlns:svg="http://www.w3.org/2000/svg"
   xmlns="http://www.w3.org/2000/svg"
   viewBox="0 0 1000 437.33334"
   height="200"
   width="500"
   xml:space="preserve"
   id="svg2"
   version="1.1"><metadata
     id="metadata8"><rdf:RDF><cc:Work
         rdf:about=""><dc:format>image/svg+xml</dc:format><dc:type
           rdf:resource="http://purl.org/dc/dcmitype/StillImage" /></cc:Work></rdf:RDF></metadata><defs
     id="defs6"><clipPath
       id="clipPath20"
       clipPathUnits="userSpaceOnUse"><path
         id="path18"
         d="M 0,328 H 750 V 0 H 0 Z" /></clipPath></defs><g
     transform="matrix(1.3333333,0,0,-1.3333333,0,437.33333)"
     id="g10"><path
       id="path12"
       style="fill-opacity:0;fill-rule:nonzero;stroke:none"
       d="M 0,0 H 750 V 328 H 0 Z" /><g
       id="g14"><g
         clip-path="url(#clipPath20)"
         id="g16"><g
           transform="translate(109.0562,169.2779)"
           id="g22"><path
             id="path24"
             style="fill:#e74724;fill-opacity:1;fill-rule:nonzero;stroke:none"
             d="m 0,0 c -6.879,0 -12.455,5.576 -12.455,12.455 0,6.878 5.576,12.455 12.455,12.455 6.879,0 12.455,-5.577 12.455,-12.455 C 12.455,5.576 6.879,0 0,0 m 36.001,23.758 c -0.125,0.153 -0.261,0.292 -0.412,0.419 -0.535,0.45 -1.215,0.733 -1.965,0.733 H 12.455 v 21.169 c 0,0.634 -0.195,1.225 -0.527,1.715 -0.332,0.491 -0.802,0.882 -1.353,1.116 -0.367,0.156 -0.771,0.242 -1.193,0.242 v 0 H -9.382 v 0 c -0.211,0 -0.417,-0.022 -0.617,-0.063 -0.599,-0.123 -1.135,-0.422 -1.553,-0.84 -0.557,-0.557 -0.903,-1.325 -0.903,-2.17 V 24.91 h -21.169 c -1.691,0 -3.073,-1.383 -3.073,-3.073 V 21.836 3.073 c 0,-1.69 1.382,-3.073 3.073,-3.073 h 21.169 v -21.17 c 0,-0.845 0.346,-1.613 0.903,-2.17 0.418,-0.418 0.954,-0.717 1.553,-0.84 0.2,-0.041 0.406,-0.063 0.617,-0.063 v 0 H 9.382 v 0 c 0.422,0 0.826,0.087 1.193,0.243 0.551,0.234 1.021,0.625 1.353,1.115 0.332,0.491 0.527,1.082 0.527,1.715 V 0 h 21.169 c 0.423,0 0.826,0.086 1.194,0.242 0.183,0.078 0.358,0.174 0.521,0.285 0.328,0.221 0.61,0.504 0.832,0.831 0.332,0.491 0.526,1.081 0.526,1.715 v 18.763 0.001 c 0,0.729 -0.268,1.392 -0.696,1.921" /></g><g
           transform="translate(159.2862,166.4361)"
           id="g26"><path
             id="path28"
             style="fill:#ffffff;fill-opacity:1;fill-rule:nonzero;stroke:none"
             d="m 0,0 c 0,0 6.6,-6.5 16.901,-6.5 3.4,0 8.6,1.5 8.6,6.301 0,7.5 -26.701,9.4 -26.701,29.201 0,14.102 13.301,22.302 26.601,22.302 16.801,0 24.402,-8.301 24.402,-8.301 L 40.402,30.102 c 0,0 -6.3,5.101 -15.3,5.101 -3.501,0 -8.801,-1.801 -8.801,-6.201 0,-7.9 26.902,-9.1 26.902,-29.201 0,-12.301 -11.201,-22.403 -26.602,-22.403 -18.301,0 -27.002,10.202 -27.002,10.202 z" /></g><g
           transform="translate(209.5845,171.8365)"
           id="g30"><path
             id="path32"
             style="fill:#ffffff;fill-opacity:1;fill-rule:nonzero;stroke:none"
             d="M 0,0 8.701,44.703 H 26.202 L 17.401,-0.5 c -0.2,-1 -0.3,-1.9 -0.3,-2.8 0,-5.7 4,-8.7 10.501,-8.7 7.7,0 13.101,4 14.601,11.5 l 8.8,45.203 H 68.504 L 59.604,-1 C 56.403,-17.101 44.203,-28.002 27.001,-28.002 12.101,-28.002 -0.6,-20.301 -0.6,-5.8 -0.6,-3.9 -0.4,-2 0,0" /></g><g
           transform="translate(308.1856,182.1372)"
           id="g34"><path
             id="path36"
             style="fill:#ffffff;fill-opacity:1;fill-rule:nonzero;stroke:none"
             d="m 0,0 c 2.2,0 4.3,0.4 5.9,1.5 3.3,2.201 5.401,6.301 5.401,11.001 0,4.2 -2.401,6.9 -7.2,6.9 H -4.7 L -8.501,0 Z M -19.301,34.402 H 8 c 4.2,0 7.801,-0.7 10.901,-2.2 6.701,-3.2 10.401,-9.801 10.401,-18.1 C 29.302,2.1 22.501,-8.1 12.9,-12.601 9.501,-14.201 5.7,-15 1.9,-15 h -13.301 l -4.3,-22.102 h -17.501 z" /></g><g
           transform="translate(370.9859,174.0376)"
           id="g38"><path
             id="path40"
             style="fill:#ffffff;fill-opacity:1;fill-rule:nonzero;stroke:none"
             d="M 0,0 -1.4,13.9 C -1.799,18.4 -2,26.201 -2,26.201 h -0.2 c 0,0 -2.9,-7.801 -5.1,-12.301 L -14.1,0 Z m -9.6,42.502 h 20.101 l 9.9,-71.504 H 2.9 l -1.5,15 h -22.301 l -7.2,-15 h -18.701 z" /></g><g
           transform="translate(438.5865,217.7398)"
           id="g42"><path
             id="path44"
             style="fill:#ffffff;fill-opacity:1;fill-rule:nonzero;stroke:none"
             d="M 0,0 C 18.401,0 27.502,-9.2 27.502,-9.2 L 17.401,-21.302 c 0,0 -6.4,5.301 -17.001,5.301 -17.101,0 -25.301,-13.102 -25.301,-25.102 0,-11.501 7.799,-16.8 16.8,-16.8 8.401,0 15.501,5.199 15.501,5.199 l 1.1,5.501 H -1.601 L 1.3,-32.302 h 25.601 l -7.9,-40.402 H 4.4 l 0.4,2 c 0.301,1.5 0.7,3 0.7,3 H 5.301 c 0,0 -5.701,-6.201 -17.502,-6.201 -15.7,0 -30.902,11.401 -30.902,31.602 C -43.103,-19.302 -24.602,0 0,0" /></g><g
           transform="translate(479.7837,216.5396)"
           id="g46"><path
             id="path48"
             style="fill:#ffffff;fill-opacity:1;fill-rule:nonzero;stroke:none"
             d="m 0,0 h 44.703 l -2.9,-15.001 H 14.501 l -2.5,-13.001 h 21.701 l -3,-15 H 9.001 L 6.4,-56.504 h 28.703 l -2.901,-15 H -14 Z" /></g><g
           transform="translate(536.4839,216.5396)"
           id="g50"><path
             id="path52"
             style="fill:#ffffff;fill-opacity:1;fill-rule:nonzero;stroke:none"
             d="m 0,0 h 19.102 l 4.7,-30.201 c 0.7,-4.602 1.2,-11.801 1.2,-11.801 h 0.2 c 0,0 3.5,7.1 6,11.801 L 47.503,0 h 19.201 l -8.1,-71.504 H 41.402 l 4.101,32.201 c 0.7,5.401 2.3,12.001 2.3,12.001 h -0.199 c 0,0 -3.801,-7.6 -6.301,-12.001 L 29.702,-60.004 H 14.501 l -3.6,20.701 c -0.8,4.5 -1.501,12.201 -1.501,12.201 H 9.201 c 0,0 -0.9,-6.8 -2.301,-12.201 l -8.4,-32.201 h -17.601 z" /></g><g
           transform="translate(608.981,171.8365)"
           id="g54"><path
             id="path56"
             style="fill:#ffffff;fill-opacity:1;fill-rule:nonzero;stroke:none"
             d="M 0,0 8.7,44.703 H 26.201 L 17.401,-0.5 c -0.2,-1 -0.299,-1.9 -0.299,-2.8 0,-5.7 4,-8.7 10.5,-8.7 7.7,0 13.1,4 14.6,11.5 l 8.801,45.203 H 68.504 L 59.604,-1 C 56.403,-17.101 44.203,-28.002 27.002,-28.002 12.101,-28.002 -0.6,-20.301 -0.6,-5.8 -0.6,-3.9 -0.4,-2 0,0" /></g><g
           transform="translate(424.0347,130.2173)"
           id="g58"><path
             id="path60"
             style="fill:#ffffff;fill-opacity:1;fill-rule:nonzero;stroke:none"
             d="m 0,0 c -0.054,-0.135 -0.187,-0.241 -0.349,-0.295 -1.445,-3.401 -3.159,-6.347 -5.355,-9.212 2.919,-2.33 7.31,-6.32 9.801,-9.078 l -1.633,-1.42 c -2.357,2.732 -6.668,6.803 -9.4,8.998 -2.357,-2.865 -6.427,-6.775 -10.31,-8.998 -0.294,0.402 -0.938,1.071 -1.393,1.446 7.418,4.071 13.283,11.676 15.693,17.488 h -13.149 v 1.82 h 14.194 l 0.347,0.134 z" /></g><g
           transform="translate(431.4468,122.7183)"
           id="g62"><path
             id="path64"
             style="fill:#ffffff;fill-opacity:1;fill-rule:nonzero;stroke:none"
             d="M 0,0 H 22.361 V -1.901 H 1.019 C 0.857,-2.169 0.509,-2.356 0.161,-2.41 Z" /></g><g
           transform="translate(481.1988,131.1275)"
           id="g66"><path
             id="path68"
             style="fill:#ffffff;fill-opacity:1;fill-rule:nonzero;stroke:none"
             d="m 0,0 c 0,1.205 -0.965,2.143 -2.116,2.143 -1.178,0 -2.115,-0.938 -2.115,-2.143 0,-1.151 0.937,-2.115 2.115,-2.115 C -0.911,-2.115 0,-1.098 0,0 m -2.116,3.026 c 1.66,0 3,-1.339 3,-3.026 0,-1.634 -1.34,-2.999 -3,-2.999 -1.66,0 -2.999,1.365 -2.999,2.999 0,1.74 1.392,3.026 2.999,3.026 m 0.348,-22.762 c -1.258,4.686 -4.365,12.292 -7.123,17.246 l 1.741,0.83 c 2.811,-4.794 5.945,-12.346 7.337,-17.3 z M -15.237,-2.33 c -0.081,-0.214 -0.295,-0.375 -0.697,-0.401 -1.071,-6.427 -3.294,-13.203 -6.427,-17.166 -0.482,0.375 -1.205,0.723 -1.794,0.964 2.999,3.642 5.356,10.444 6.213,17.165 z" /></g><g
           transform="translate(484.4605,122.7183)"
           id="g70"><path
             id="path72"
             style="fill:#ffffff;fill-opacity:1;fill-rule:nonzero;stroke:none"
             d="M 0,0 H 22.361 V -1.901 H 1.019 C 0.857,-2.169 0.509,-2.356 0.161,-2.41 Z" /></g><g
           transform="translate(537.2368,134.2066)"
           id="g74"><path
             id="path76"
             style="fill:#ffffff;fill-opacity:1;fill-rule:nonzero;stroke:none"
             d="M 0,0 C 1.231,-1.044 2.678,-2.704 3.428,-3.883 L 2.383,-4.686 c -0.777,1.258 -2.169,2.866 -3.348,3.883 z m -3.776,-1.499 c 1.232,-1.018 2.677,-2.731 3.427,-3.91 l -1.044,-0.777 c -0.777,1.232 -2.169,2.866 -3.347,3.883 z m 5.624,-6.105 v -1.822 h -6.642 c -0.08,-0.161 -0.241,-0.295 -0.481,-0.321 -0.804,-6.213 -3.322,-11.622 -8.972,-14.89 -0.429,0.403 -1.151,0.884 -1.66,1.205 5.49,2.973 8.034,8.007 8.703,14.006 h -7.444 c -1.233,-2.196 -2.786,-4.178 -4.232,-5.516 -0.401,0.295 -1.151,0.696 -1.686,0.937 2.891,2.49 5.998,7.712 7.283,12.693 l 2.571,-0.589 c -0.054,-0.187 -0.295,-0.402 -0.724,-0.402 -0.561,-1.66 -1.472,-3.695 -2.275,-5.301 z" /></g><g
           transform="translate(543.23,122.7183)"
           id="g78"><path
             id="path80"
             style="fill:#ffffff;fill-opacity:1;fill-rule:nonzero;stroke:none"
             d="M 0,0 H 22.361 V -1.901 H 1.019 C 0.857,-2.169 0.509,-2.356 0.161,-2.41 Z" /></g><g
           transform="translate(590.438,110.3472)"
           id="g82"><path
             id="path84"
             style="fill:#ffffff;fill-opacity:1;fill-rule:nonzero;stroke:none"
             d="M 0,0 C -0.401,0.91 -0.884,1.874 -1.419,2.838 -6.989,2.249 -16.147,1.687 -20.245,1.473 -20.325,1.205 -20.513,0.99 -20.754,0.937 l -0.723,2.41 c 0.803,0.027 1.768,0.053 2.812,0.107 1.768,5.142 4.311,13.149 5.784,18.504 l 2.598,-0.696 c -0.108,-0.241 -0.375,-0.374 -0.777,-0.374 -1.472,-4.928 -3.776,-12.105 -5.624,-17.354 4.446,0.188 10.792,0.643 14.328,0.964 -1.393,2.304 -3.161,4.74 -4.767,6.534 l 1.606,0.911 C -2.705,8.863 0.509,3.775 1.875,0.856 Z" /></g><g
           transform="translate(605.2896,118.6236)"
           id="g86"><path
             id="path88"
             style="fill:#e74724;fill-opacity:1;fill-rule:nonzero;stroke:none"
             d="M 0,0 H 5.5 L 4.46,-5.5 h -5.5 z" /></g><g
           transform="translate(623.3013,130.7984)"
           id="g90"><path
             id="path92"
             style="fill:#e74724;fill-opacity:1;fill-rule:nonzero;stroke:none"
             d="M 0,0 C 4.896,0 7.043,-2.549 7.043,-2.549 L 4.125,-6.171 c 0,0 -1.576,1.342 -3.856,1.342 -3.253,0 -5.199,-2.717 -5.199,-4.998 0,-1.777 1.074,-3.421 3.555,-3.421 2.448,0 5.165,2.08 5.165,2.08 l 1.476,-4.394 c 0,0 -3.019,-2.515 -7.446,-2.515 -5.702,0 -8.619,3.521 -8.619,7.915 C -10.799,-5.231 -6.573,0 0,0" /></g><g
           transform="translate(638.397,117.5503)"
           id="g94"><path
             id="path96"
             style="fill:#e74724;fill-opacity:1;fill-rule:nonzero;stroke:none"
             d="m 0,0 c 2.314,0 4.796,1.979 4.796,5.132 0,2.046 -1.342,3.287 -3.152,3.287 -2.282,0 -4.831,-2.08 -4.831,-5.232 C -3.187,1.174 -1.845,0 0,0 m 1.711,13.248 c 5.198,0 8.954,-3.052 8.954,-7.747 0,-6.105 -5.399,-10.33 -10.766,-10.33 -5.198,0 -8.955,3.018 -8.955,7.747 0,6.07 5.367,10.33 10.767,10.33" /></g><g
           transform="translate(651.9839,130.396)"
           id="g98"><path
             id="path100"
             style="fill:#e74724;fill-opacity:1;fill-rule:nonzero;stroke:none"
             d="M 0,0 H 5.602 L 5.333,-1.342 C 5.232,-1.878 4.998,-2.582 4.998,-2.582 h 0.066 c 0.94,1.207 2.717,2.984 5.233,2.984 2.381,0 3.991,-0.972 4.595,-2.918 h 0.067 c 1.106,1.443 3.32,2.918 5.769,2.918 2.951,0 4.929,-1.274 4.929,-4.728 0,-0.705 -0.1,-1.51 -0.267,-2.415 l -2.013,-10.531 h -5.802 l 1.979,10.061 c 0.1,0.537 0.1,0.738 0.1,1.006 0,0.806 -0.301,1.342 -1.14,1.342 -2.113,0 -3.656,-2.482 -4.193,-5.266 l -1.408,-7.143 H 7.11 l 1.98,10.061 c 0.1,0.537 0.1,0.738 0.1,1.006 0,0.806 -0.301,1.342 -1.14,1.342 -2.046,0 -3.656,-2.482 -4.193,-5.266 l -1.408,-7.143 h -5.803 z" /></g></g></g></g></svg>
